<svg height="512" viewBox="0 0 54 58" width="512" xmlns="http://www.w3.org/2000/svg"><g id="Page-1" fill="none" fill-rule="evenodd"><g id="030---Online" fill-rule="nonzero"><path id="Shape" d="m47 45h-40l-5 7v3c0 1.6568542 1.34314575 3 3 3h44c1.6568542 0 3-1.3431458 3-3v-3z" fill="#3f5c6c"/><path id="Shape" d="m47 24v21l-20 2-20-2v-21c.0032948-1.1032019.89679813-1.9967052 2-2h36c1.1032019.0032948 1.9967052.8967981 2 2z" fill="#2fa8cc"/><path id="Shape" d="m45.38 22.04c-7.47.3-38.38 2.74-38.38 22.96v-21c.0032948-1.1032019.89679813-1.9967052 2-2h36c.127818-.0020785.2554163.0113529.38.04z" fill="#67b9cc"/><path id="Shape" d="m52 52h-16l-1-3h-16l-1 3h-16l5-7h40z" fill="#547580"/><path id="Shape" d="m36 52-2 2h-14l-2-2 1-3h16z" fill="#95a5a5"/><path id="Shape" d="m11 8h-2v8c0 .5522847-.44771525 1-1 1h-4c-.55228475 0-1-.4477153-1-1v-8h-2c-.39805397-.00014016-.75811965-.23634585-.91677861-.6014134-.15865897-.36506755-.08569424-.78946897.18577861-1.0805866l5-6c.18912326-.20259916.45384657-.31762254.731-.31762254s.54187674.11502338.731.31762254l5 6c.2714729.29111763.3444376.71551905.1857786 1.0805866s-.5187246.60127324-.9167786.6014134z" fill="#ff5364"/><path id="Shape" d="m53 8h-2v8c0 .5522847-.4477153 1-1 1h-4c-.5522847 0-1-.4477153-1-1v-8h-2c-.398054-.00014016-.7581196-.23634585-.9167786-.6014134s-.0856943-.78946897.1857786-1.0805866l5-6c.1891233-.20259916.4538466-.31762254.731-.31762254s.5418767.11502338.731.31762254l5 6c.2714729.29111763.3444376.71551905.1857786 1.0805866s-.5187246.60127324-.9167786.6014134z" fill="#ff5364"/><path id="Shape" d="m42 22c.0085984 4.1806872-1.7405205 8.1724524-4.82 11h-20.36c-5.0343434-4.6591161-6.2653361-12.1403441-2.989257-18.1668922 3.2760791-6.02654804 10.2238719-9.06172358 16.8715354-7.37040857 6.6476634 1.69131502 11.3001285 7.67785687 11.2977216 14.53730077z" fill="#65ddb9"/><path id="Shape" d="m41.687 28.311c1.7530784-4.0380923 1.7505431-8.6228489-.007-12.659-.014-.036-.032-.068-.049-.1-2.551679-5.80298798-8.291778-9.54948401-14.631-9.54948401s-12.079321 3.74649603-14.631 9.54948401c-.017.034-.035.066-.049.1-1.7575431 4.0361511-1.7600784 8.6209077-.007 12.659.0170053.0520599.0384161.102576.064.151 1.1035606 2.5081881 2.8332195 4.6906643 5.023 6.338.4418278.3313708 1.0686292.2418278 1.4-.2s.2418278-1.0686292-.2-1.4c-1.5052698-1.1373311-2.7665823-2.565617-3.709-4.2h3.992c.501153 1.9910758 1.3472783 3.8789504 2.5 5.578.2064995.2917074.5529369.4510899.9088127.4181097.3558757-.0329801.6671238-.2533125.8165-.578s.1141868-.7044023-.0923127-.9961097c-.9105382-1.3552403-1.5966716-2.848391-2.032-4.422h5.016v5c0 .5522847.4477153 1 1 1s1-.4477153 1-1v-5h5.016c-.4356381 1.5736706-1.1221108 3.0668246-2.033 4.422-.3192205.4509405-.2124404 1.0752794.2385 1.3944999.4509405.3192206 1.0752794.2124406 1.3945-.2384999 1.1530738-1.6989794 1.9995392-3.5868578 2.501-5.578h3.992c-.9424177 1.634383-2.2037302 3.0626689-3.709 4.2-.4418278.3313709-.5313708.9581722-.2 1.4.3313709.4418278.9581722.5313708 1.4.2 2.1891336-1.6470824 3.9181252-3.8292413 5.021-6.337.0261426-.0487654.0482175-.0996045.066-.152zm-5.715-7.311c-.0401297-1.3414231-.1768166-2.6782144-.409-4h4.5c.4924954 1.2819883.7917634 2.6300423.888 4zm-22.921 0c.0962366-1.3699577.3955046-2.7180117.888-4h4.5c-.2321834 1.3217856-.3688703 2.6585769-.409 4zm7.436-4h5.513v4h-5.974c.0481194-1.3433907.2022653-2.6808827.461-4zm12.534-2h-5.021v-6.833c2.116.638 3.955 3.244 5.021 6.833zm-7.021-6.833v6.833h-5.021c1.066-3.589 2.905-6.195 5.021-6.833zm2 8.833h5.513c.2587347 1.3191173.4128806 2.6566093.461 4h-5.974zm11.106-2h-3.993c-.5274937-2.1398495-1.4681256-4.1559746-2.769-5.935 2.8427075 1.1851103 5.218156 3.2700388 6.762 5.935zm-17.45-5.935c-1.3008744 1.7790254-2.2415063 3.7951505-2.769 5.935h-3.993c1.543844-2.6649612 3.9192925-4.7498897 6.762-5.935zm-7.731 17.935c-.4841513-1.2834858-.7766231-2.6312821-.868-4h4.974c.0420847 1.34157.1807771 2.6783643.415 4zm6.558 0c-.2548874-1.3194846-.4060164-2.6569093-.452-4h5.969v4zm7.517 0v-4h5.969c-.0459836 1.3430907-.1971126 2.6805154-.452 4zm7.554 0c.2342229-1.3216357.3729153-2.65843.415-4h4.974c-.0913769 1.3687179-.3838487 2.7165142-.868 4z" fill="#14a085"/><path id="Shape" d="m42 34c0 .5522847-.4477153 1-1 1h-28c-.5522847 0-1-.4477153-1-1s.4477153-1 1-1h28c.5522847 0 1 .4477153 1 1z" fill="#285680"/></g></g></svg>